<?xml version="1.0" encoding="UTF-8"?>
<svg xmlns="http://www.w3.org/2000/svg" xmlns:xlink="http://www.w3.org/1999/xlink" width="3000" height="3000" viewBox="0 0 3000 3000">
<defs>
<clipPath id="clip-0">

</clipPath>
<clipPath id="clip-1">
<path clip-rule="nonzero" d="M 1498.230469 1125.730469 C 1484.121094 1126 1470.878906 1127.929688 1458.488281 1131.53125 L 1458.5 1131.53125 L 1562.820312 1229.628906 L 1580.539062 1154.339844 C 1557.660156 1136.289062 1530.21875 1126.75 1498.230469 1125.730469 Z M 1498.230469 1125.730469 "/>
</clipPath>
<clipPath id="clip-2">
<path clip-rule="nonzero" d="M 1498.230469 1125.730469 C 1484.121094 1126 1470.878906 1127.929688 1458.488281 1131.53125 L 1458.5 1131.53125 L 1562.820312 1229.628906 L 1580.539062 1154.339844 C 1557.660156 1136.289062 1530.21875 1126.75 1498.230469 1125.730469 Z M 1498.230469 1125.730469 "/>
</clipPath>
<clipPath id="clip-3">
<path clip-rule="nonzero" d="M 1365 1136 L 1504 1136 L 1504 1235 L 1365 1235 Z M 1365 1136 "/>
</clipPath>
<clipPath id="clip-4">
<path clip-rule="nonzero" d="M 1443.820312 1136.75 C 1428.589844 1143.210938 1414.820312 1152.511719 1402.519531 1164.648438 C 1382.941406 1183.960938 1370.511719 1207.101562 1365.210938 1234.050781 L 1503.128906 1192.5 L 1443.828125 1136.75 Z M 1443.820312 1136.75 "/>
</clipPath>
<clipPath id="clip-5">
<path clip-rule="nonzero" d="M 1443.820312 1136.75 C 1428.589844 1143.210938 1414.820312 1152.511719 1402.519531 1164.648438 C 1382.941406 1183.960938 1370.511719 1207.101562 1365.210938 1234.050781 L 1503.128906 1192.5 L 1443.828125 1136.75 Z M 1443.820312 1136.75 "/>
</clipPath>
<clipPath id="clip-6">
<path clip-rule="nonzero" d="M 1362 1225 L 1442 1225 L 1442 1363 L 1362 1363 Z M 1362 1225 "/>
</clipPath>
<clipPath id="clip-7">
<path clip-rule="nonzero" d="M 1441.140625 1225.640625 L 1363.03125 1249.160156 C 1362.691406 1252.660156 1362.46875 1256.230469 1362.359375 1259.839844 C 1362.308594 1272.308594 1363.839844 1284.28125 1366.941406 1295.761719 L 1372.621094 1312.460938 C 1377.140625 1323.289062 1382.910156 1333.308594 1389.941406 1342.519531 C 1395.730469 1350.039062 1402.050781 1356.78125 1408.878906 1362.738281 Z M 1441.140625 1225.640625 "/>
</clipPath>
<clipPath id="clip-8">
<path clip-rule="nonzero" d="M 1441.140625 1225.640625 L 1363.03125 1249.160156 C 1362.691406 1252.660156 1362.46875 1256.230469 1362.359375 1259.839844 C 1362.308594 1272.308594 1363.839844 1284.28125 1366.941406 1295.761719 L 1372.621094 1312.460938 C 1377.140625 1323.289062 1382.910156 1333.308594 1389.941406 1342.519531 C 1395.730469 1350.039062 1402.050781 1356.78125 1408.878906 1362.738281 Z M 1441.140625 1225.640625 "/>
</clipPath>
<clipPath id="clip-9">
<path clip-rule="nonzero" d="M 1442 1164 L 1633 1164 L 1633 1384 L 1442 1384 Z M 1442 1164 "/>
</clipPath>
<clipPath id="clip-10">
<path clip-rule="nonzero" d="M 1592.300781 1164.769531 L 1560.519531 1299.890625 L 1545.210938 1304.5 L 1559.160156 1245.191406 L 1514.78125 1203.449219 L 1456.441406 1221.019531 L 1442.488281 1280.328125 L 1552.710938 1383.980469 C 1561.941406 1379.820312 1570.75 1374.539062 1579.140625 1368.140625 C 1603.890625 1349.070312 1620.191406 1324.359375 1628.03125 1294.011719 L 1628.019531 1294.011719 L 1498.519531 1333.019531 L 1486.878906 1322.070312 L 1631.089844 1278.628906 L 1632.339844 1261.609375 C 1631.628906 1223.359375 1618.660156 1191.460938 1593.429688 1165.898438 C 1593.058594 1165.519531 1592.679688 1165.148438 1592.308594 1164.769531 Z M 1592.300781 1164.769531 "/>
</clipPath>
<clipPath id="clip-11">
<path clip-rule="nonzero" d="M 1592.300781 1164.769531 L 1560.519531 1299.890625 L 1545.210938 1304.5 L 1559.160156 1245.191406 L 1514.78125 1203.449219 L 1456.441406 1221.019531 L 1442.488281 1280.328125 L 1552.710938 1383.980469 C 1561.941406 1379.820312 1570.75 1374.539062 1579.140625 1368.140625 C 1603.890625 1349.070312 1620.191406 1324.359375 1628.03125 1294.011719 L 1628.019531 1294.011719 L 1498.519531 1333.019531 L 1486.878906 1322.070312 L 1631.089844 1278.628906 L 1632.339844 1261.609375 C 1631.628906 1223.359375 1618.660156 1191.460938 1593.429688 1165.898438 C 1593.058594 1165.519531 1592.679688 1165.148438 1592.308594 1164.769531 Z M 1592.300781 1164.769531 "/>
</clipPath>
<linearGradient id="linear-pattern-0" gradientUnits="userSpaceOnUse" x1="-852.738443" y1="600.367713" x2="-859.507555" y2="898.246194" gradientTransform="matrix(0.75, 0, 0, 0.75, 1095, 687.75)">
<stop offset="0" stop-color="rgb(0%, 64.312744%, 100%)" stop-opacity="1"/>
<stop offset="0.0193009" stop-color="rgb(0%, 64.312744%, 100%)" stop-opacity="1"/>
<stop offset="0.5" stop-color="rgb(0%, 64.312744%, 100%)" stop-opacity="1"/>
<stop offset="0.980699" stop-color="rgb(0%, 64.239502%, 99.885559%)" stop-opacity="1"/>
<stop offset="1" stop-color="rgb(0%, 64.16626%, 99.771118%)" stop-opacity="1"/>
</linearGradient>
<clipPath id="clip-12">
<path clip-rule="nonzero" d="M 1420 1295 L 1539 1295 L 1539 1396 L 1420 1396 Z M 1420 1295 "/>
</clipPath>
<clipPath id="clip-13">
<path clip-rule="nonzero" d="M 1438.828125 1295.890625 L 1420.910156 1372.058594 C 1437.421875 1383.359375 1456.5 1390.800781 1478.148438 1394.371094 C 1484.300781 1395.070312 1490.308594 1395.441406 1496.199219 1395.480469 C 1511.039062 1395.578125 1525.078125 1393.570312 1538.320312 1389.441406 Z M 1438.828125 1295.890625 "/>
</clipPath>
<clipPath id="clip-14">
<path clip-rule="nonzero" d="M 1438.828125 1295.890625 L 1420.910156 1372.058594 C 1437.421875 1383.359375 1456.5 1390.800781 1478.148438 1394.371094 C 1484.300781 1395.070312 1490.308594 1395.441406 1496.199219 1395.480469 C 1511.039062 1395.578125 1525.078125 1393.570312 1538.320312 1389.441406 Z M 1438.828125 1295.890625 "/>
</clipPath>
<linearGradient id="linear-pattern-1" gradientUnits="userSpaceOnUse" x1="-856.773928" y1="777.951407" x2="-859.873696" y2="914.358397" gradientTransform="matrix(0.75, 0, 0, 0.75, 1095, 687.75)">
<stop offset="0" stop-color="rgb(0%, 64.312744%, 100%)" stop-opacity="1"/>
<stop offset="0.0260661" stop-color="rgb(0%, 64.312744%, 100%)" stop-opacity="1"/>
<stop offset="0.5" stop-color="rgb(0%, 64.312744%, 100%)" stop-opacity="1"/>
<stop offset="0.75" stop-color="rgb(0%, 64.312744%, 100%)" stop-opacity="1"/>
<stop offset="0.875" stop-color="rgb(0%, 64.250183%, 99.902344%)" stop-opacity="1"/>
<stop offset="0.9375" stop-color="rgb(0%, 64.083862%, 99.642944%)" stop-opacity="1"/>
<stop offset="0.973934" stop-color="rgb(0%, 63.874817%, 99.317932%)" stop-opacity="1"/>
<stop offset="1" stop-color="rgb(0%, 63.771057%, 99.156189%)" stop-opacity="1"/>
</linearGradient>
</defs>

<path fill-rule="nonzero" fill="rgb(0%, 0%, 22.363281%)" fill-opacity="1" d="M 936.421875 512.769531 C 1004.140625 513.210938 1062.589844 535.410156 1111.78125 579.371094 C 1124.078125 590.449219 1135.230469 602.640625 1145.21875 615.929688 C 1091.300781 628.480469 1038.75 641.710938 1008.671875 672.5 C 992.339844 689.210938 982.585938 711.148438 973.183594 732.308594 L 973.117188 732.460938 L 973.039062 732.640625 C 964.527344 751.808594 956.253906 770.371094 943.546875 783.378906 C 943.542969 783.390625 943.539062 783.390625 943.535156 783.390625 C 943.457031 783.480469 943.335938 783.601562 943.257812 783.679688 L 943.253906 783.679688 C 929.515625 797.589844 910.671875 804.949219 891.300781 812.519531 L 891.148438 812.578125 C 872.402344 819.898438 853.113281 827.449219 836.890625 841.210938 C 806.328125 867.140625 786.492188 915.25 767.398438 965.429688 C 766.574219 964.710938 765.753906 963.980469 764.933594 963.25 C 713.527344 916.96875 685.179688 856.660156 679.890625 782.320312 C 678.335938 710.730469 700.511719 649.261719 746.417969 597.878906 C 792.695312 546.480469 853.007812 518.128906 927.347656 512.839844 C 930.390625 512.769531 933.414062 512.75 936.421875 512.769531 Z M 2065.75 533.378906 C 2068.761719 533.398438 2071.789062 533.460938 2074.828125 533.570312 C 2149.089844 539.828125 2209.03125 568.960938 2254.628906 620.980469 C 2299.859375 672.941406 2321.21875 734.710938 2318.730469 806.261719 C 2312.800781 876.589844 2286.359375 934.058594 2239.410156 978.679688 C 2220.570312 926.960938 2201.179688 876.910156 2170.230469 849.949219 C 2154.191406 835.96875 2135 828.171875 2116.359375 820.609375 L 2116.308594 820.578125 L 2116.199219 820.539062 L 2116.101562 820.5 C 2096.871094 812.691406 2078.160156 805.078125 2064.628906 791.03125 C 2064.539062 790.929688 2064.609375 791 2064.5 790.890625 L 2064.371094 790.75 L 2064.359375 790.75 L 2064.359375 790.738281 C 2051.78125 777.519531 2043.738281 758.769531 2035.449219 739.429688 L 2035.378906 739.269531 C 2026.261719 717.980469 2016.789062 695.929688 2000.679688 679 C 1971.25 648.078125 1919.5 634.128906 1866.210938 620.960938 L 1866.199219 620.960938 C 1873.480469 612.710938 1881.25 604.941406 1889.539062 597.671875 C 1939.300781 554.359375 1998.039062 532.929688 2065.75 533.378906 Z M 1436.308594 1387.96875 L 1431.878906 1390.070312 L 1431.808594 1390.101562 Z M 1431.191406 1390.390625 L 1430.679688 1390.628906 L 1430.699219 1390.621094 L 1430.679688 1390.640625 L 1430.710938 1390.621094 L 1430.699219 1390.621094 Z M 1430.671875 1390.640625 L 1430.660156 1390.640625 L 1430.648438 1390.648438 Z M 1430.660156 1390.640625 L 1430.648438 1390.648438 Z M 1429.109375 1391.371094 L 1428.640625 1391.601562 L 1428.53125 1391.648438 L 1428.621094 1391.609375 L 1428.640625 1391.601562 L 1428.679688 1391.578125 Z M 1428.558594 1391.640625 L 1428.5 1391.660156 L 1428.519531 1391.660156 Z M 1428.5 1391.660156 L 1428.371094 1391.730469 L 1427.601562 1392.089844 Z M 1427.601562 1392.089844 L 1427.058594 1392.351562 L 1427.308594 1392.230469 Z M 1426.269531 1392.730469 L 1426.261719 1392.730469 Z M 1426.261719 1392.730469 L 1426.230469 1392.738281 Z M 1426.238281 1392.730469 L 1426.230469 1392.738281 L 1426.199219 1392.75 Z M 1426.210938 1392.75 L 1426.191406 1392.761719 Z M 1426.160156 1392.78125 L 1426.148438 1392.78125 L 1426.140625 1392.789062 Z M 1426.140625 1392.789062 L 1426.121094 1392.789062 Z M 1426.121094 1392.789062 L 1426.121094 1392.800781 L 1426.109375 1392.800781 Z M 1426.261719 1392.730469 L 1426.238281 1392.730469 L 1426.199219 1392.75 L 1426.230469 1392.738281 L 1426.101562 1392.800781 L 1426.101562 1392.808594 L 1426.011719 1392.839844 Z M 1425.960938 1392.871094 L 1425.929688 1392.890625 L 1425.910156 1392.890625 Z M 1425.761719 1392.960938 L 1425.691406 1393 Z M 1425.691406 1393 L 1425.679688 1393 L 1425.25 1393.199219 L 1425.230469 1393.210938 Z M 1425.128906 1393.261719 L 1425.128906 1393.269531 Z M 1443.238281 1384.679688 L 1442.820312 1384.890625 L 1442.511719 1385.039062 L 1442.820312 1384.890625 L 1442.261719 1385.148438 L 1442.511719 1385.039062 L 1442.238281 1385.160156 L 1440.160156 1386.140625 L 1441.628906 1385.449219 L 1442.101562 1385.230469 L 1442.199219 1385.179688 L 1442.019531 1385.269531 L 1441.890625 1385.328125 L 1441.628906 1385.449219 L 1441.371094 1385.570312 L 1440.289062 1386.089844 L 1441.371094 1385.570312 L 1436.308594 1387.96875 L 1429.289062 1391.289062 L 1428.679688 1391.578125 L 1428.738281 1391.550781 L 1428.558594 1391.640625 L 1428.609375 1391.609375 L 1427.601562 1392.089844 L 1426.589844 1392.570312 L 1426.328125 1392.691406 L 1426.339844 1392.691406 L 1425.101562 1393.28125 L 1425.109375 1393.269531 L 1425.160156 1393.25 L 1425.230469 1393.210938 L 1425.160156 1393.25 L 1425.25 1393.199219 L 1425.671875 1393.011719 L 1425.679688 1393 L 1425.691406 1393 L 1425.710938 1392.980469 L 1425.71875 1392.980469 L 1425.910156 1392.890625 L 1425.898438 1392.898438 L 1425.929688 1392.890625 L 1425.980469 1392.859375 L 1425.960938 1392.871094 L 1425.980469 1392.859375 L 1426.089844 1392.808594 L 1426.050781 1392.820312 L 1425.941406 1392.878906 L 1425.761719 1392.960938 L 1426.089844 1392.808594 L 1426.109375 1392.800781 L 1426.101562 1392.800781 L 1426.121094 1392.800781 L 1426.128906 1392.789062 L 1426.179688 1392.761719 L 1426.160156 1392.78125 L 1426.191406 1392.761719 L 1425.160156 1393.25 L 1426.191406 1392.761719 L 1426.210938 1392.75 L 1426.25 1392.730469 L 1426.230469 1392.738281 L 1426.238281 1392.730469 L 1426.261719 1392.730469 L 1426.328125 1392.691406 L 1426.289062 1392.710938 L 1426.261719 1392.730469 L 1426.269531 1392.71875 L 1426.359375 1392.679688 L 1426.269531 1392.71875 L 1426.289062 1392.710938 L 1427.050781 1392.359375 L 1426.320312 1392.699219 L 1426.359375 1392.679688 L 1426.289062 1392.710938 L 1426.320312 1392.699219 L 1426.269531 1392.71875 L 1426.269531 1392.730469 Z M 1425.089844 1393.28125 L 1425.078125 1393.289062 Z M 1425.019531 1393.308594 L 1425.019531 1393.320312 Z M 1424.820312 1393.410156 L 1424.339844 1393.640625 L 1423.800781 1393.890625 Z M 1424.820312 1393.410156 L 1423.421875 1394.070312 L 1424.339844 1393.640625 Z M 1425 1393.320312 L 1424.589844 1393.519531 L 1422.949219 1394.289062 L 1423.628906 1393.980469 Z M 1436.308594 1387.96875 L 1427.601562 1392.089844 L 1427.308594 1392.230469 L 1425.160156 1393.25 L 1425.050781 1393.300781 L 1425 1393.320312 L 1424.890625 1393.371094 L 1424.890625 1393.378906 L 1424.820312 1393.410156 L 1422 1394.75 L 1423.800781 1393.890625 L 1423.179688 1394.191406 L 1423.421875 1394.070312 L 1423.070312 1394.238281 L 1422.640625 1394.441406 L 1423.511719 1394.03125 L 1424.820312 1393.410156 L 1423.160156 1394.191406 L 1424.890625 1393.371094 L 1424.898438 1393.371094 L 1424.890625 1393.371094 L 1424.921875 1393.359375 L 1424.898438 1393.371094 L 1425 1393.320312 L 1425.160156 1393.25 L 1427.058594 1392.351562 L 1426.648438 1392.539062 L 1427.601562 1392.089844 L 1429.359375 1391.261719 L 1429.75 1391.070312 L 1429.550781 1391.171875 L 1429.910156 1391 L 1429.75 1391.070312 L 1429.96875 1390.96875 L 1429.640625 1391.121094 L 1427.601562 1392.089844 Z M 1424.421875 1393.601562 L 1421.488281 1394.980469 L 1421.5 1394.980469 Z M 1421.449219 1395 L 1420.609375 1395.398438 Z M 1420.609375 1395.398438 L 1419.890625 1395.75 L 1420.519531 1395.441406 Z M 1419.660156 1395.859375 L 1419.648438 1395.859375 Z M 1419.679688 1395.839844 L 1419.640625 1395.859375 L 1419.660156 1395.859375 Z M 1419.648438 1395.859375 L 1419.640625 1395.859375 Z M 1419.589844 1395.890625 L 1419.519531 1395.921875 Z M 1419.519531 1395.921875 Z M 1419.519531 1395.921875 L 1419.5 1395.929688 L 1419.488281 1395.929688 L 1419.5 1395.929688 Z M 1419.488281 1395.929688 L 1419.480469 1395.941406 Z M 1419.480469 1395.941406 L 1419.421875 1395.96875 L 1419.410156 1395.96875 L 1419.441406 1395.960938 L 1419.421875 1395.960938 L 1419.441406 1395.949219 L 1419.449219 1395.949219 L 1419.441406 1395.949219 L 1419.441406 1395.960938 L 1419.449219 1395.949219 Z M 1419.421875 1395.960938 L 1419.421875 1395.96875 L 1419.410156 1395.96875 Z M 1426.570312 1392.578125 L 1425.160156 1393.25 L 1425.011719 1393.320312 L 1425.019531 1393.320312 L 1424.941406 1393.351562 L 1424.890625 1393.371094 L 1424.421875 1393.601562 L 1424.890625 1393.378906 L 1424.851562 1393.390625 L 1421.53125 1394.960938 L 1421.511719 1394.980469 L 1421.5 1394.980469 L 1421.308594 1395.070312 L 1418.980469 1396.179688 L 1422.820312 1394.359375 L 1419.378906 1395.980469 L 1424.820312 1393.410156 L 1424.828125 1393.410156 L 1424.839844 1393.398438 L 1424.878906 1393.378906 L 1425.070312 1393.289062 L 1425.078125 1393.289062 L 1425.019531 1393.308594 L 1425.03125 1393.308594 L 1425.019531 1393.308594 L 1425.039062 1393.308594 L 1425.03125 1393.308594 L 1425.160156 1393.25 L 1426.558594 1392.589844 Z M 1418.890625 1396.21875 L 1418.878906 1396.21875 Z M 1418.878906 1396.21875 Z M 1418.878906 1396.21875 Z M 1418.878906 1396.21875 L 1418.871094 1396.230469 Z M 1418.871094 1396.230469 L 1418.859375 1396.230469 Z M 1419.171875 1396.089844 L 1418.800781 1396.261719 L 1418.871094 1396.230469 Z M 1418.789062 1396.269531 L 1418.78125 1396.269531 Z M 1418.78125 1396.269531 L 1418.769531 1396.269531 Z M 1418.808594 1396.25 L 1418.789062 1396.269531 L 1418.808594 1396.261719 L 1418.800781 1396.261719 L 1418.78125 1396.269531 L 1418.769531 1396.269531 L 1418.761719 1396.28125 L 1418.78125 1396.269531 Z M 1418.75 1396.28125 Z M 1418.71875 1396.300781 Z M 1418.738281 1396.289062 L 1418.71875 1396.300781 L 1418.730469 1396.289062 L 1418.71875 1396.300781 L 1418.710938 1396.300781 L 1418.71875 1396.300781 Z M 1418.699219 1396.308594 L 1418.679688 1396.320312 L 1418.628906 1396.339844 L 1418.648438 1396.328125 Z M 1421.449219 1395 L 1420.410156 1395.5 L 1420.28125 1395.558594 L 1420.351562 1395.53125 L 1420.140625 1395.621094 L 1419.589844 1395.890625 L 1420.609375 1395.398438 L 1419.519531 1395.921875 L 1420.609375 1395.398438 L 1419.5 1395.929688 L 1419.519531 1395.921875 L 1419.5 1395.929688 L 1419.488281 1395.929688 L 1419.5 1395.929688 L 1419.488281 1395.929688 L 1419.480469 1395.941406 L 1419.460938 1395.949219 L 1419.640625 1395.859375 L 1419.460938 1395.949219 L 1419.640625 1395.859375 L 1419.269531 1396.039062 L 1419.171875 1396.089844 L 1419.089844 1396.121094 L 1418.871094 1396.230469 L 1418.789062 1396.269531 L 1418.53125 1396.390625 L 1420.378906 1395.511719 L 1419.859375 1395.761719 L 1419.679688 1395.839844 L 1419.699219 1395.828125 L 1419.648438 1395.859375 L 1419.699219 1395.828125 L 1420.140625 1395.621094 L 1420.609375 1395.398438 Z M 1421.449219 1395 L 1418.371094 1396.460938 L 1417.761719 1396.75 L 1418.371094 1396.460938 L 1421.328125 1395.058594 L 1421.359375 1395.050781 L 1421.449219 1395 L 1421.328125 1395.058594 L 1421.320312 1395.070312 Z M 1418.988281 1396.171875 L 1418.730469 1396.289062 L 1418.371094 1396.460938 L 1392.769531 1408.589844 L 1418.550781 1396.378906 L 1418.371094 1396.460938 L 1418.691406 1396.308594 L 1418.730469 1396.289062 Z M 1394.800781 1407.621094 L 1386.5 1411.558594 Z M 1384.269531 1412.609375 L 1384.238281 1412.621094 L 1384.261719 1412.609375 Z M 1384.191406 1412.648438 L 1384.160156 1412.660156 Z M 1383.921875 1412.78125 L 1383.871094 1412.800781 L 1383.898438 1412.789062 Z M 1418.371094 1396.460938 L 1414.441406 1398.320312 L 1418.371094 1396.460938 L 1394.800781 1407.621094 L 1386.429688 1411.589844 L 1386.5 1411.558594 L 1383.511719 1412.96875 L 1383.519531 1412.96875 L 1386.429688 1411.589844 L 1384.429688 1412.539062 L 1418.371094 1396.460938 L 1392.871094 1408.539062 Z M 1383.351562 1413.050781 L 1383.011719 1413.210938 L 1383.25 1413.089844 Z M 1383.011719 1413.210938 L 1382.839844 1413.289062 L 1382.390625 1413.5 Z M 1383.011719 1413.210938 L 1382.351562 1413.519531 L 1382.910156 1413.25 Z M 1383.011719 1413.210938 L 1382.191406 1413.589844 L 1382.179688 1413.601562 Z M 1381.761719 1413.800781 L 1381.710938 1413.820312 Z M 1383.710938 1412.871094 L 1383.25 1413.089844 L 1383.011719 1413.210938 L 1381.800781 1413.78125 L 1382.179688 1413.601562 L 1381.761719 1413.800781 L 1381.691406 1413.839844 L 1381.710938 1413.820312 L 1381.691406 1413.839844 L 1381.710938 1413.820312 L 1381.71875 1413.820312 L 1381.738281 1413.808594 L 1381.761719 1413.800781 L 1382.191406 1413.589844 L 1382.351562 1413.519531 L 1381.859375 1413.75 L 1381.808594 1413.78125 L 1382.390625 1413.5 L 1381.800781 1413.78125 L 1381.769531 1413.800781 L 1382.839844 1413.289062 L 1383.621094 1412.921875 L 1383.351562 1413.050781 Z M 1381.691406 1413.828125 L 1381.691406 1413.839844 L 1381.679688 1413.839844 L 1381.691406 1413.839844 L 1381.679688 1413.839844 Z M 1380.171875 1414.550781 L 1377.46875 1415.828125 Z M 1381.621094 1413.871094 L 1377.46875 1415.828125 L 1381.460938 1413.941406 Z M 1506.390625 1360.738281 L 1622.289062 1417.5 Z M 1364.738281 1421.859375 L 1364.710938 1421.871094 L 1364.71875 1421.871094 Z M 1364.28125 1422.078125 L 1364.269531 1422.078125 Z M 1512.019531 1469.019531 L 1512.03125 1469.019531 C 1509.078125 1469.03125 1506.058594 1469.070312 1502.96875 1469.140625 C 1504.960938 1469.089844 1506.929688 1469.058594 1508.859375 1469.039062 C 1509.921875 1469.03125 1510.980469 1469.019531 1512.019531 1469.019531 Z M 1501.148438 1469.179688 L 1501.140625 1469.179688 C 1501.128906 1469.179688 1501.109375 1469.179688 1501.078125 1469.179688 C 1501.109375 1469.179688 1501.128906 1469.179688 1501.140625 1469.179688 Z M 1499.46875 1469.21875 C 1499.460938 1469.21875 1499.460938 1469.21875 1499.460938 1469.21875 C 1499.460938 1469.21875 1499.46875 1469.21875 1499.46875 1469.21875 Z M 2236.730469 1554.519531 C 2276.519531 1598.039062 2298.71875 1652.261719 2303.339844 1717.179688 C 2304.890625 1788.761719 2282.71875 1850.230469 2236.808594 1901.609375 C 2190.53125 1953.019531 2130.21875 1981.359375 2055.878906 1986.648438 C 2052.839844 1986.71875 2049.808594 1986.738281 2046.808594 1986.71875 C 1979.089844 1986.28125 1920.640625 1964.078125 1871.449219 1920.128906 C 1867.5 1916.570312 1863.671875 1912.898438 1859.960938 1909.109375 L 1859.949219 1909.109375 C 1912.640625 1896.789062 1963.699219 1883.460938 1993.21875 1853.25 C 2009.601562 1836.480469 2019.371094 1814.5 2028.769531 1793.339844 L 2028.839844 1793.191406 L 2028.910156 1793.03125 C 2037.429688 1773.839844 2045.679688 1755.320312 2058.351562 1742.359375 C 2058.429688 1742.28125 2058.558594 1742.148438 2058.628906 1742.070312 C 2072.308594 1728.230469 2091.089844 1720.878906 2110.46875 1713.308594 L 2110.628906 1713.25 C 2129.359375 1705.929688 2148.699219 1698.359375 2164.96875 1684.558594 C 2196.769531 1657.578125 2216.960938 1606.699219 2236.71875 1554.519531 Z M 761.386719 1544.699219 C 780.476562 1597.179688 799.980469 1648.269531 831.371094 1675.621094 C 847.425781 1689.609375 866.625 1697.410156 885.269531 1704.980469 L 885.421875 1705.039062 C 904.695312 1712.859375 923.425781 1720.46875 936.96875 1734.539062 C 936.976562 1734.550781 936.980469 1734.558594 936.988281 1734.558594 C 937.070312 1734.648438 937.160156 1734.738281 937.246094 1734.828125 C 937.25 1734.839844 937.257812 1734.839844 937.261719 1734.851562 C 949.820312 1748.050781 957.855469 1766.78125 966.140625 1786.121094 L 966.207031 1786.269531 L 966.246094 1786.371094 C 975.359375 1807.621094 984.824219 1829.660156 1000.921875 1846.570312 C 1030.019531 1877.140625 1080.929688 1891.121094 1133.539062 1904.160156 C 1127.929688 1910.121094 1122.050781 1915.800781 1115.878906 1921.210938 C 1066.121094 1964.519531 1007.378906 1985.949219 939.664062 1985.5 C 936.65625 1985.480469 933.632812 1985.421875 930.589844 1985.320312 C 856.324219 1979.058594 796.390625 1949.921875 750.789062 1897.910156 C 705.5625 1845.941406 684.195312 1784.171875 686.6875 1712.621094 C 692.421875 1644.640625 717.320312 1588.660156 761.382812 1544.699219 Z M 936.605469 484.570312 C 933.335938 484.550781 930.042969 484.570312 926.734375 484.640625 C 926.273438 484.660156 925.808594 484.679688 925.347656 484.710938 C 843.441406 490.53125 776.8125 521.96875 725.457031 579.019531 L 725.386719 579.089844 C 674.542969 636 649.980469 703.941406 651.695312 782.929688 C 651.707031 783.390625 651.726562 783.859375 651.761719 784.320312 C 657.585938 866.21875 689.023438 932.859375 746.066406 984.210938 L 746.144531 984.28125 C 800.632812 1032.960938 865.289062 1057.558594 940.109375 1058.039062 C 943.382812 1058.070312 946.671875 1058.039062 949.980469 1057.96875 C 950.441406 1057.960938 950.90625 1057.941406 951.367188 1057.910156 C 1014.601562 1053.410156 1068.730469 1033.640625 1113.75 998.621094 L 1093.828125 978.308594 C 1053.679688 1008.621094 1005.53125 1025.78125 949.367188 1029.769531 C 946.324219 1029.839844 943.300781 1029.859375 940.292969 1029.839844 C 877.632812 1029.429688 822.902344 1010.390625 776.105469 972.730469 L 776.101562 972.730469 C 826.976562 958.441406 875.726562 942.980469 904.316406 913.371094 C 920.144531 896.980469 929.828125 876.210938 939.109375 856.289062 C 939.140625 856.21875 939.140625 856.210938 939.171875 856.148438 L 939.238281 856.011719 C 944.9375 843.78125 950.503906 831.839844 957.277344 821.570312 L 1195.761719 1064.75 L 1238.75 1261.039062 L 1243.269531 1241.621094 L 1217.460938 1086.890625 L 1243.269531 1241.621094 L 1193.390625 1455.859375 L 951.328125 1696.320312 C 944.792969 1686.019531 939.441406 1674.128906 933.957031 1661.941406 L 933.894531 1661.800781 L 933.851562 1661.699219 C 924.847656 1641.691406 915.4375 1620.828125 899.839844 1604.25 C 870.28125 1572.820312 818.375 1556.640625 765.109375 1541.058594 L 765.105469 1541.058594 C 768.023438 1538.261719 771.019531 1535.519531 774.097656 1532.820312 C 823.859375 1489.519531 882.597656 1468.078125 950.3125 1468.53125 C 953.320312 1468.550781 956.34375 1468.609375 959.382812 1468.710938 C 1017.128906 1473.589844 1066.199219 1492.28125 1106.609375 1524.800781 L 1126.761719 1504.789062 C 1081.539062 1467.46875 1026.539062 1446.078125 961.753906 1440.609375 C 961.292969 1440.570312 960.828125 1440.550781 960.367188 1440.53125 C 957.058594 1440.421875 953.769531 1440.351562 950.496094 1440.328125 C 875.675781 1439.839844 810.707031 1463.570312 755.582031 1511.539062 L 755.503906 1511.609375 C 697.792969 1562.210938 665.484375 1628.429688 658.585938 1710.25 C 658.546875 1710.710938 658.519531 1711.179688 658.503906 1711.640625 C 655.753906 1790.601562 679.421875 1858.859375 729.515625 1916.421875 L 729.585938 1916.5 C 780.1875 1974.210938 846.398438 2006.519531 928.222656 2013.417969 C 928.683594 2013.457031 929.144531 2013.484375 929.609375 2013.5 C 932.917969 2013.617188 936.207031 2013.683594 939.476562 2013.707031 C 1014.300781 2014.195312 1079.269531 1990.460938 1134.390625 1942.488281 L 1134.480469 1942.410156 C 1152.988281 1926.160156 1169.210938 1907.710938 1183.148438 1887.058594 C 1183.5 1886.53125 1183.839844 1886 1184.160156 1885.441406 L 1201.128906 1856.21875 C 1201.429688 1855.710938 1201.710938 1855.179688 1201.980469 1854.640625 C 1213.269531 1831.96875 1221.480469 1807.691406 1226.589844 1781.769531 C 1226.710938 1781.128906 1226.820312 1780.480469 1226.898438 1779.820312 L 1231.269531 1744.921875 C 1231.378906 1744.078125 1231.441406 1743.238281 1231.46875 1742.390625 C 1233.558594 1682.339844 1220.371094 1628.46875 1191.890625 1580.789062 L 1169.238281 1597.988281 C 1193.789062 1640.378906 1205.140625 1688.191406 1203.289062 1741.410156 L 1198.910156 1776.320312 C 1194.300781 1799.75 1186.910156 1821.660156 1176.738281 1842.058594 L 1159.769531 1871.28125 C 1153.289062 1880.878906 1146.269531 1889.949219 1138.710938 1898.488281 C 1121.101562 1845.550781 1102.640625 1794.828125 1072.269531 1768.160156 C 1055.441406 1753.371094 1034.910156 1745.941406 1015.101562 1738.789062 L 1014.941406 1738.730469 L 1014.789062 1738.679688 L 1014.78125 1738.679688 C 1003.238281 1734.5 991.925781 1730.410156 981.832031 1724.949219 L 1272.609375 1504.101562 C 1291.410156 1498.550781 1309.398438 1493.660156 1326.589844 1489.410156 C 1326.589844 1489.410156 1326.589844 1489.410156 1326.601562 1489.410156 C 1397.929688 1477.179688 1455.558594 1470.449219 1499.449219 1469.21875 L 1499.460938 1469.21875 C 1495.679688 1469.070312 1492 1468.949219 1488.429688 1468.878906 C 1492.011719 1468.949219 1495.691406 1469.070312 1499.46875 1469.21875 C 1500 1469.210938 1500.519531 1469.191406 1501.039062 1469.179688 C 1500.519531 1469.191406 1500 1469.210938 1499.46875 1469.21875 C 1543.359375 1471.019531 1600.890625 1478.511719 1672.070312 1491.679688 C 1672.078125 1491.679688 1672.089844 1491.679688 1672.101562 1491.679688 C 1672.121094 1491.691406 1672.140625 1491.691406 1672.160156 1491.691406 L 1672.148438 1491.691406 C 1689.371094 1496.191406 1707.390625 1501.351562 1726.230469 1507.179688 L 2013.628906 1731.480469 L 2013.621094 1731.480469 C 2003.429688 1736.820312 1992.011719 1740.78125 1980.351562 1744.820312 L 1980.191406 1744.871094 C 1960.289062 1751.769531 1939.609375 1758.941406 1922.550781 1773.53125 C 1891.769531 1799.871094 1872.621094 1850.449219 1854.308594 1903.160156 C 1844.769531 1892.78125 1836.070312 1881.609375 1828.21875 1869.628906 L 1811.628906 1840.191406 C 1801.730469 1819.648438 1794.628906 1797.640625 1790.320312 1774.160156 L 1786.410156 1739.191406 C 1785.261719 1686.378906 1797.03125 1639.070312 1821.71875 1597.25 L 1821.730469 1597.25 L 1799.300781 1579.75 L 1799.289062 1579.75 C 1770.609375 1626.800781 1756.921875 1680.160156 1758.210938 1739.808594 C 1758.230469 1740.648438 1758.289062 1741.5 1758.378906 1742.339844 L 1762.289062 1777.300781 C 1762.371094 1777.949219 1762.46875 1778.601562 1762.578125 1779.25 C 1767.351562 1805.230469 1775.230469 1829.621094 1786.230469 1852.429688 C 1786.488281 1852.96875 1786.769531 1853.5 1787.058594 1854.03125 L 1803.648438 1883.46875 C 1803.960938 1884.019531 1804.289062 1884.558594 1804.640625 1885.089844 C 1818.300781 1905.929688 1834.28125 1924.589844 1852.570312 1941.078125 L 1852.660156 1941.160156 C 1907.148438 1989.839844 1971.808594 2014.433594 2046.621094 2014.925781 C 2049.890625 2014.945312 2053.179688 2014.921875 2056.488281 2014.847656 C 2056.960938 2014.839844 2057.421875 2014.816406 2057.878906 2014.785156 C 2139.789062 2008.957031 2206.421875 1977.519531 2257.769531 1920.480469 L 2257.839844 1920.398438 C 2308.679688 1863.5 2333.25 1795.558594 2331.53125 1716.570312 C 2331.519531 1716.101562 2331.5 1715.640625 2331.46875 1715.179688 C 2325.640625 1633.269531 2294.210938 1566.640625 2237.160156 1515.289062 L 2237.089844 1515.21875 C 2182.601562 1466.53125 2117.941406 1441.941406 2043.121094 1441.449219 C 2039.851562 1441.429688 2036.558594 1441.449219 2033.25 1441.53125 C 2032.789062 1441.539062 2032.320312 1441.558594 2031.859375 1441.589844 C 1966.878906 1446.210938 1911.511719 1466.960938 1865.75 1503.820312 L 1865.761719 1503.820312 L 1885.640625 1524.089844 C 1926.53125 1491.960938 1975.929688 1473.839844 2033.859375 1469.71875 C 2036.910156 1469.660156 2039.929688 1469.628906 2042.941406 1469.648438 C 2110.648438 1470.089844 2169.109375 1492.289062 2218.289062 1536.25 C 2223.378906 1540.828125 2228.25 1545.550781 2232.890625 1550.410156 L 2232.878906 1550.410156 C 2179.390625 1565.289062 2127.140625 1580.808594 2097.101562 1611.921875 C 2081.230469 1628.359375 2071.519531 1649.179688 2062.25 1669.089844 L 2062.109375 1669.371094 C 2056.480469 1681.480469 2050.980469 1693.25 2044.328125 1703.410156 L 1805.75 1460.121094 L 1758.640625 1245 L 1762.910156 1264.480469 L 1808.160156 1070.089844 L 2050.5 829.371094 C 2056.988281 839.621094 2062.308594 851.441406 2067.75 863.550781 L 2067.820312 863.691406 C 2076.839844 883.738281 2086.238281 904.628906 2101.859375 921.230469 C 2130.941406 952.140625 2181.660156 968.308594 2234.039062 983.660156 L 2234.03125 983.660156 C 2233.128906 984.460938 2232.230469 985.269531 2231.320312 986.058594 C 2181.558594 1029.371094 2122.820312 1050.800781 2055.109375 1050.359375 C 2052.101562 1050.339844 2049.070312 1050.269531 2046.03125 1050.160156 C 1989.148438 1045.371094 1940.679688 1027.160156 1900.621094 995.519531 L 1900.609375 995.519531 L 1880.441406 1015.558594 L 1880.449219 1015.558594 C 1925.320312 1051.96875 1979.730469 1072.871094 2043.660156 1078.269531 C 2044.128906 1078.308594 2044.589844 1078.339844 2045.050781 1078.351562 C 2048.359375 1078.460938 2051.648438 1078.539062 2054.921875 1078.558594 C 2129.738281 1079.050781 2194.710938 1055.308594 2249.828125 1007.339844 L 2249.910156 1007.269531 C 2307.628906 956.671875 2339.929688 890.460938 2346.828125 808.628906 C 2346.871094 808.171875 2346.898438 807.710938 2346.910156 807.25 C 2349.660156 728.28125 2325.988281 660.019531 2275.898438 602.460938 L 2275.828125 602.378906 C 2225.230469 544.671875 2159.019531 512.359375 2077.199219 505.460938 C 2076.730469 505.429688 2076.269531 505.398438 2075.789062 505.378906 C 2072.488281 505.269531 2069.210938 505.199219 2065.941406 505.179688 C 1991.121094 504.691406 1926.148438 528.429688 1871.03125 576.390625 L 1870.941406 576.46875 C 1852.429688 592.710938 1836.210938 611.171875 1822.269531 631.820312 C 1821.910156 632.351562 1821.578125 632.890625 1821.261719 633.429688 L 1804.289062 662.660156 C 1803.988281 663.179688 1803.710938 663.699219 1803.441406 664.238281 C 1792.140625 686.910156 1783.941406 711.191406 1778.828125 737.109375 C 1778.710938 737.75 1778.601562 738.398438 1778.519531 739.058594 L 1774.148438 773.960938 C 1774.039062 774.800781 1773.980469 775.640625 1773.941406 776.488281 C 1771.820312 837.550781 1785.488281 892.210938 1814.96875 940.480469 L 1837.578125 923.308594 L 1837.589844 923.308594 C 1812.058594 880.320312 1800.238281 831.710938 1802.128906 777.46875 L 1806.5 742.558594 C 1811.121094 719.128906 1818.511719 697.21875 1828.679688 676.820312 L 1845.648438 647.601562 C 1850.890625 639.828125 1856.480469 632.410156 1862.441406 625.339844 L 1862.449219 625.339844 C 1880.230469 678.878906 1898.75 730.371094 1929.429688 757.320312 C 1946.238281 772.089844 1966.761719 779.511719 1986.578125 786.671875 L 1986.730469 786.730469 L 1986.890625 786.78125 C 1998.359375 790.929688 2009.601562 795 2019.648438 800.410156 L 2019.640625 800.410156 L 1728.390625 1021.621094 C 1709.808594 1027.089844 1692.03125 1031.921875 1675.039062 1036.109375 L 1675.03125 1036.109375 C 1603.691406 1048.351562 1546.078125 1055.070312 1502.179688 1056.300781 C 1458.300781 1054.5 1400.769531 1047.019531 1329.601562 1033.851562 L 1329.589844 1033.851562 C 1312.070312 1029.28125 1293.699219 1024.011719 1274.5 1018.050781 L 1274.488281 1018.050781 L 987.402344 794 C 997.746094 788.519531 1009.359375 784.488281 1021.191406 780.390625 L 1021.359375 780.339844 C 1041.269531 773.441406 1061.878906 766.28125 1078.890625 751.730469 C 1110.109375 725.03125 1129.351562 673.300781 1147.941406 619.609375 C 1150.371094 622.960938 1152.730469 626.378906 1155.011719 629.871094 L 1171.601562 659.308594 C 1181.5 679.839844 1188.601562 701.851562 1192.910156 725.339844 L 1196.820312 760.300781 C 1198.050781 816.578125 1184.601562 866.621094 1156.480469 910.410156 L 1178.820312 927.851562 C 1210.988281 878.839844 1226.390625 822.789062 1225.019531 759.691406 C 1225 758.839844 1224.941406 758 1224.851562 757.160156 L 1220.941406 722.199219 C 1220.859375 721.550781 1220.769531 720.890625 1220.648438 720.25 C 1215.878906 694.269531 1208 669.871094 1197 647.058594 C 1196.738281 646.519531 1196.460938 645.988281 1196.171875 645.46875 L 1179.589844 616.03125 C 1179.269531 615.46875 1178.941406 614.929688 1178.589844 614.398438 C 1164.929688 593.558594 1148.949219 574.898438 1130.660156 558.421875 L 1130.570312 558.339844 C 1076.078125 509.648438 1011.429688 485.058594 936.605469 484.570312 Z M 936.605469 484.570312 "/>
<path fill-rule="nonzero" fill="rgb(100%, 100%, 100%)" fill-opacity="1" d="M 1498.320312 1112.148438 C 1498.210938 1112.148438 1498.089844 1112.148438 1497.980469 1112.148438 C 1456.109375 1112.929688 1421.109375 1127.210938 1392.980469 1154.980469 C 1364.839844 1182.75 1350.109375 1217.558594 1348.78125 1259.410156 C 1348.769531 1259.539062 1348.769531 1259.671875 1348.769531 1259.789062 C 1348.71875 1273.480469 1350.398438 1286.640625 1353.820312 1299.308594 C 1353.898438 1299.589844 1353.980469 1299.859375 1354.078125 1300.140625 L 1359.761719 1316.828125 C 1359.859375 1317.121094 1359.960938 1317.410156 1360.078125 1317.691406 C 1365.050781 1329.601562 1371.398438 1340.621094 1379.140625 1350.761719 L 1379.179688 1350.808594 C 1403.300781 1382.121094 1435.550781 1401.109375 1475.941406 1407.769531 C 1476.160156 1407.808594 1476.378906 1407.839844 1476.609375 1407.871094 C 1483.230469 1408.628906 1489.730469 1409.03125 1496.109375 1409.070312 C 1530.378906 1409.300781 1560.808594 1399.25 1587.390625 1378.929688 L 1587.429688 1378.898438 C 1618.738281 1354.78125 1637.730469 1322.519531 1644.390625 1282.140625 C 1644.460938 1281.730469 1644.511719 1281.328125 1644.539062 1280.929688 L 1645.890625 1262.609375 C 1645.921875 1262.191406 1645.929688 1261.78125 1645.929688 1261.359375 C 1645.140625 1219.488281 1630.871094 1184.488281 1603.101562 1156.359375 C 1575.328125 1128.21875 1540.519531 1113.480469 1498.660156 1112.160156 C 1498.550781 1112.148438 1498.441406 1112.148438 1498.320312 1112.148438 Z M 1498.320312 1112.148438 "/>
<g clip-path="url(#clip-0)">
<g clip-path="url(#clip-1)">
<g clip-path="url(#clip-2)">
<path fill-rule="nonzero" fill="rgb(0%, 64.312744%, 100%)" fill-opacity="1" d="M 1458.488281 1125.730469 L 1458.488281 1229.628906 L 1580.539062 1229.628906 L 1580.539062 1125.730469 Z M 1458.488281 1125.730469 "/>
</g>
</g>
</g>
<g clip-path="url(#clip-3)">
<g clip-path="url(#clip-4)">
<g clip-path="url(#clip-5)">
<path fill-rule="nonzero" fill="rgb(0%, 64.312744%, 100%)" fill-opacity="1" d="M 1365.210938 1136.75 L 1365.210938 1234.050781 L 1503.128906 1234.050781 L 1503.128906 1136.75 Z M 1365.210938 1136.75 "/>
</g>
</g>
</g>
<g clip-path="url(#clip-6)">
<g clip-path="url(#clip-7)">
<g clip-path="url(#clip-8)">
<path fill-rule="nonzero" fill="rgb(0%, 64.312744%, 100%)" fill-opacity="1" d="M 1362.308594 1225.640625 L 1362.308594 1362.738281 L 1441.140625 1362.738281 L 1441.140625 1225.640625 Z M 1362.308594 1225.640625 "/>
</g>
</g>
</g>
<g clip-path="url(#clip-9)">
<g clip-path="url(#clip-10)">
<g clip-path="url(#clip-11)">
<path fill-rule="nonzero" fill="url(#linear-pattern-0)" d="M 1442.488281 1164.769531 L 1442.488281 1383.980469 L 1632.339844 1383.980469 L 1632.339844 1164.769531 Z M 1442.488281 1164.769531 "/>
</g>
</g>
</g>
<g clip-path="url(#clip-12)">
<g clip-path="url(#clip-13)">
<g clip-path="url(#clip-14)">
<path fill-rule="nonzero" fill="url(#linear-pattern-1)" d="M 1420.910156 1295.890625 L 1420.910156 1395.578125 L 1538.320312 1395.578125 L 1538.320312 1295.890625 Z M 1420.910156 1295.890625 "/>
</g>
</g>
</g>
<path fill-rule="nonzero" fill="rgb(0%, 0%, 0%)" fill-opacity="1" d="M 1541.339844 1261.808594 L 1541.121094 1267.46875 C 1539.621094 1278.910156 1534.589844 1288.160156 1526.03125 1295.21875 C 1517.410156 1302.28125 1507.109375 1305.320312 1495.148438 1304.351562 C 1483.710938 1302.859375 1474.460938 1297.820312 1467.398438 1289.269531 C 1465.140625 1286.5 1463.25 1283.460938 1461.75 1280.171875 L 1459.820312 1275.078125 C 1458.75 1271.570312 1458.148438 1267.890625 1458.039062 1264.039062 C 1458.019531 1252.230469 1461.820312 1242.308594 1469.441406 1234.261719 C 1477.070312 1226.21875 1486.78125 1221.890625 1498.570312 1221.269531 C 1510.378906 1221.25 1520.308594 1225.058594 1528.359375 1232.679688 C 1536.398438 1240.308594 1540.730469 1250.019531 1541.339844 1261.808594 "/>
<path fill-rule="nonzero" fill="rgb(83.59375%, 83.59375%, 83.59375%)" fill-opacity="1" d="M 1488.761719 1251.75 L 1487.269531 1253.25 C 1484.058594 1256.078125 1480.730469 1257.660156 1477.289062 1257.980469 C 1473.839844 1258.289062 1471.089844 1257.199219 1469.050781 1254.710938 C 1467.238281 1252.171875 1466.761719 1249.070312 1467.589844 1245.429688 C 1467.871094 1244.261719 1468.28125 1243.078125 1468.828125 1241.898438 L 1469.769531 1240.160156 C 1470.460938 1239 1471.28125 1237.890625 1472.238281 1236.828125 C 1475.25 1233.609375 1478.519531 1231.621094 1482.03125 1230.859375 C 1485.550781 1230.089844 1488.511719 1230.71875 1490.929688 1232.75 C 1493.191406 1234.941406 1494.121094 1237.828125 1493.710938 1241.410156 C 1493.300781 1244.980469 1491.648438 1248.429688 1488.761719 1251.75 "/>
</svg>
